<svg width="21" height="20" viewBox="0 0 21 20" fill="none" xmlns="http://www.w3.org/2000/svg">
<path d="M20.1874 0.055542H1.50725C1.05801 0.055542 0.695068 0.405868 0.695068 0.839487V18.8702C0.695068 19.3039 1.05801 19.6542 1.50725 19.6542H20.1874C20.6367 19.6542 20.9996 19.3039 20.9996 18.8702V0.839487C20.9996 0.405868 20.6367 0.055542 20.1874 0.055542ZM17.3448 5.09484L16.3093 6.05272C16.2179 6.11887 16.1747 6.22666 16.1925 6.33201V13.3802C16.1747 13.488 16.2179 13.5957 16.3093 13.6594L17.3245 14.6173V14.8305H12.2281V14.6271L13.2763 13.6447C13.3803 13.5443 13.3803 13.5149 13.3803 13.3655V7.66226L10.4616 14.806H10.0682L6.67222 7.66226V12.4517C6.64176 12.6526 6.71537 12.8559 6.86257 13.0004L8.22805 14.5953V14.8084H4.34989V14.5953L5.71537 13.0004C5.78731 12.9287 5.84085 12.8417 5.8717 12.7464C5.90256 12.6511 5.90986 12.5502 5.89303 12.4517V6.91506C5.9108 6.76072 5.84988 6.61129 5.72806 6.50594L4.51486 5.09484V4.88171H8.28389L11.1925 11.043L13.7534 4.88661H17.3448V5.09484Z" fill="white"/>
</svg>
