<svg width="20" height="21" viewBox="0 0 20 21" fill="none" xmlns="http://www.w3.org/2000/svg">
<path d="M9.05703 20.9998C9.77559 20.987 10.4651 20.7793 11.0037 20.4134C11.5423 20.0474 11.8952 19.5467 12 19H6C6.10776 19.5616 6.47717 20.074 7.03951 20.4419C7.60184 20.8097 8.31881 21.008 9.05703 20.9998Z" />
<path d="M17.9523 16.3495C17.3647 15.8257 16.8502 15.2251 16.4227 14.564C15.9561 13.6515 15.6764 12.655 15.6001 11.6329V8.6226C15.5976 8.25695 15.565 7.89211 15.5026 7.53182C15.0229 7.43594 14.562 7.26308 14.1376 7.01994C14.2994 7.54086 14.3815 8.08323 14.3813 8.6287V11.639C14.456 12.8858 14.799 14.1018 15.3868 15.2039C15.8075 15.8706 16.3067 16.4843 16.8737 17.032H1.26751C1.83448 16.4843 2.33367 15.8706 2.75439 15.2039C3.3422 14.1018 3.68517 12.8858 3.75986 11.639V8.6226C3.75666 7.91736 3.89259 7.21841 4.15989 6.56578C4.42718 5.91315 4.82058 5.31965 5.31757 4.81927C5.81455 4.31889 6.40536 3.92145 7.05616 3.64972C7.70695 3.37799 8.40496 3.23729 9.1102 3.2357C10.1423 3.23652 11.1513 3.54176 12.0108 4.1132C11.9161 3.76524 11.8629 3.40727 11.8524 3.04679V2.66288C11.2161 2.34988 10.5326 2.14399 9.82927 2.0535V1.28569C9.82927 1.06993 9.74356 0.863007 9.591 0.710443C9.43843 0.557878 9.23151 0.472168 9.01575 0.472168C8.79999 0.472168 8.59307 0.557878 8.44051 0.710443C8.28794 0.863007 8.20223 1.06993 8.20223 1.28569V2.08397C6.62743 2.30612 5.18616 3.09051 4.14452 4.29232C3.10287 5.49413 2.53119 7.03221 2.53501 8.6226V11.6329C2.45869 12.655 2.179 13.6515 1.71235 14.564C1.29242 15.2236 0.786217 15.8241 0.207189 16.3495C0.142187 16.4066 0.0900913 16.4769 0.0543672 16.5557C0.018643 16.6345 0.000109564 16.72 0 16.8066V17.6353C0 17.7969 0.0642022 17.9519 0.178483 18.0662C0.292763 18.1805 0.447761 18.2447 0.609378 18.2447H17.5501C17.7117 18.2447 17.8667 18.1805 17.981 18.0662C18.0953 17.9519 18.1595 17.7969 18.1595 17.6353V16.8066C18.1594 16.72 18.1408 16.6345 18.1051 16.5557C18.0694 16.4769 18.0173 16.4066 17.9523 16.3495Z" />
<path d="M16.4227 6.09378C18.1055 6.09378 19.4696 4.72964 19.4696 3.04689C19.4696 1.36414 18.1055 0 16.4227 0C14.74 0 13.3758 1.36414 13.3758 3.04689C13.3758 4.72964 14.74 6.09378 16.4227 6.09378Z" fill="#00B3FF"/>
</svg>
