<svg width="26" height="20" viewBox="0 0 26 20" fill="none" xmlns="http://www.w3.org/2000/svg">
<path d="M22.8336 4.95402C22.8503 5.16951 22.8503 5.38378 22.8503 5.59804C22.8503 12.1552 17.6506 19.711 8.14804 19.711C5.22042 19.711 2.50064 18.8971 0.211914 17.4834C0.627579 17.529 1.02785 17.545 1.46019 17.545C3.78611 17.5504 6.04617 16.8039 7.87606 15.4258C6.79767 15.407 5.75229 15.0655 4.88589 14.449C4.01948 13.8324 3.37531 12.9715 3.04331 11.9865C3.36276 12.0321 3.68349 12.0628 4.01961 12.0628C4.48275 12.0628 4.94844 12.0013 5.38079 11.8941C4.21046 11.6673 3.1581 11.0585 2.40265 10.171C1.6472 9.28362 1.23529 8.17245 1.23696 7.02645V6.96488C1.92589 7.33307 2.72515 7.56334 3.57187 7.59412C2.86253 7.14169 2.2809 6.52777 1.87886 5.80712C1.47682 5.08647 1.26687 4.2815 1.26775 3.46404C1.26775 2.54295 1.52306 1.69822 1.97079 0.961847C3.26928 2.49495 4.88879 3.74918 6.72443 4.64329C8.56007 5.5374 10.5709 6.05146 12.6267 6.15216C12.5472 5.78275 12.4984 5.39978 12.4984 5.01559C12.4981 4.36414 12.6315 3.71901 12.8911 3.11708C13.1507 2.51515 13.5313 1.96823 14.0112 1.50759C14.4911 1.04694 15.0609 0.681596 15.6881 0.432445C16.3152 0.183294 16.9873 0.0552189 17.666 0.0555426C19.1542 0.0555426 20.4974 0.653999 21.4416 1.62187C22.5985 1.40714 23.708 1.00177 24.7208 0.423729C24.3351 1.56993 23.5273 2.54185 22.4487 3.15742C23.4748 3.04509 24.4776 2.7861 25.4238 2.38903C24.7171 3.37796 23.8414 4.24516 22.8336 4.95402Z" fill="white"/>
</svg>
