<svg width="27" height="20" viewBox="0 0 27 20" fill="none" xmlns="http://www.w3.org/2000/svg">
<path d="M22.6897 1.68914C22.6823 1.675 22.6701 1.66392 22.6552 1.65789C20.9356 0.877021 19.121 0.320202 17.2567 0.00136579C17.2398 -0.00175077 17.2223 0.000497554 17.2067 0.00779101C17.1911 0.0150845 17.1783 0.0270517 17.17 0.0419909C16.9229 0.485871 16.6986 0.941809 16.4979 1.40807C14.4883 1.10614 12.4441 1.10614 10.4345 1.40807C10.2325 0.940625 10.0046 0.484573 9.75185 0.0419909C9.74318 0.0273764 9.73026 0.0156847 9.71478 0.00843866C9.6993 0.00119258 9.68198 -0.00127208 9.66506 0.00136579C7.80057 0.319533 5.98581 0.876393 4.26646 1.65793C4.25174 1.66411 4.23932 1.67465 4.23092 1.68811C0.792559 6.77017 -0.149337 11.7273 0.312725 16.623C0.314025 16.635 0.31775 16.6466 0.323678 16.6572C0.329606 16.6677 0.337615 16.677 0.347231 16.6844C2.34935 18.1516 4.58876 19.2715 6.96987 19.9964C6.98663 20.0014 7.00454 20.0012 7.02118 19.9958C7.03781 19.9904 7.05238 19.9801 7.06292 19.9662C7.57433 19.2775 8.02748 18.5482 8.41776 17.7858C8.42312 17.7753 8.42618 17.7638 8.42674 17.7521C8.4273 17.7404 8.42534 17.7287 8.421 17.7178C8.41666 17.7069 8.41003 17.697 8.40155 17.6888C8.39307 17.6806 8.38293 17.6743 8.3718 17.6702C7.65721 17.3996 6.96541 17.0734 6.30289 16.6947C6.29085 16.6877 6.28075 16.6778 6.27346 16.666C6.26617 16.6543 6.26193 16.6409 6.2611 16.6271C6.26028 16.6133 6.2629 16.5995 6.26873 16.587C6.27456 16.5744 6.28343 16.5635 6.29455 16.5551C6.43396 16.452 6.57095 16.3458 6.70541 16.2365C6.71721 16.2269 6.73148 16.2207 6.74662 16.2187C6.76176 16.2167 6.77717 16.2189 6.79111 16.2251C11.1316 18.1856 15.8307 18.1856 20.1198 16.2251C20.1338 16.2185 20.1494 16.216 20.1647 16.2178C20.1801 16.2197 20.1946 16.2258 20.2066 16.2355C20.3412 16.3454 20.4786 16.4519 20.6185 16.5551C20.6297 16.5634 20.6386 16.5742 20.6446 16.5868C20.6505 16.5993 20.6532 16.613 20.6525 16.6268C20.6518 16.6406 20.6476 16.654 20.6404 16.6658C20.6332 16.6777 20.6232 16.6876 20.6112 16.6947C19.9502 17.0766 19.2578 17.4026 18.5413 17.6692C18.5302 17.6734 18.5201 17.6799 18.5117 17.6882C18.5032 17.6965 18.4967 17.7065 18.4924 17.7175C18.4882 17.7285 18.4863 17.7403 18.4869 17.752C18.4876 17.7638 18.4908 17.7753 18.4962 17.7858C18.893 18.544 19.3455 19.2724 19.85 19.965C19.8602 19.9792 19.8747 19.9899 19.8914 19.9955C19.9081 20.0011 19.9262 20.0014 19.9431 19.9963C22.3284 19.2739 24.5718 18.1538 26.5764 16.6844C26.5861 16.6773 26.5943 16.6683 26.6002 16.6579C26.6062 16.6475 26.6098 16.6359 26.6109 16.624C27.1641 10.9641 25.6848 6.04758 22.6897 1.68914ZM9.06597 13.642C7.75917 13.642 6.68241 12.4551 6.68241 10.9974C6.68241 9.53973 7.73829 8.35272 9.06597 8.35272C10.404 8.35272 11.4704 9.55004 11.4495 10.9973C11.4495 12.4551 10.3936 13.642 9.06597 13.642ZM17.8787 13.642C16.572 13.642 15.4952 12.4551 15.4952 10.9974C15.4952 9.53973 16.5511 8.35272 17.8787 8.35272C19.2169 8.35272 20.2832 9.55004 20.2623 10.9973C20.2623 12.4551 19.2169 13.642 17.8787 13.642Z" fill="white"/>
</svg>
