<svg width="189" height="189" viewBox="0 0 189 189" fill="none" xmlns="http://www.w3.org/2000/svg">
<circle cx="94.5" cy="94.5" r="94.5" fill="#00B2FF" fill-opacity="0.1"/>
<path fill-rule="evenodd" clip-rule="evenodd" d="M137.406 70.6001C138.427 71.626 139 73.0167 139 74.4666C139 75.9166 138.427 77.3072 137.406 78.3331L86.519 129.4C85.4967 130.424 84.111 131 82.6661 131C81.2213 131 79.8356 130.424 78.8133 129.4L49.7353 100.219C49.1996 99.7179 48.77 99.1139 48.472 98.4427C48.174 97.7716 48.0138 97.0471 48.0008 96.3124C47.9879 95.5778 48.1226 94.848 48.3968 94.1667C48.671 93.4854 49.0792 92.8666 49.5969 92.347C50.1146 91.8274 50.7313 91.4179 51.4102 91.1427C52.0891 90.8675 52.8162 90.7323 53.5483 90.7453C54.2804 90.7583 55.0023 90.9191 55.6711 91.2181C56.3399 91.5172 56.9418 91.9483 57.441 92.4859L82.6661 117.8L129.7 70.6001C130.722 69.5755 132.108 69 133.553 69C134.997 69 136.383 69.5755 137.406 70.6001Z" fill="#0085FF"/>
</svg>
