<svg width="12" height="12" viewBox="0 0 12 12" fill="none" xmlns="http://www.w3.org/2000/svg">
<path d="M8.5 6C8.36739 6 8.24021 6.05268 8.14645 6.14645C8.05268 6.24021 8 6.36739 8 6.5C8 6.63261 8.05268 6.75979 8.14645 6.85355C8.24021 6.94732 8.36739 7 8.5 7H9.5C9.63261 7 9.75979 6.94732 9.85355 6.85355C9.94732 6.75979 10 6.63261 10 6.5C10 6.36739 9.94732 6.24021 9.85355 6.14645C9.75979 6.05268 9.63261 6 9.5 6H8.5ZM1.5 0C1.10218 0 0.720644 0.158035 0.43934 0.43934C0.158035 0.720644 0 1.10218 0 1.5V9.5C0 10.163 0.263392 10.7989 0.732233 11.2678C1.20107 11.7366 1.83696 12 2.5 12H10C10.5304 12 11.0391 11.7893 11.4142 11.4142C11.7893 11.0391 12 10.5304 12 10V4C12 3.64894 11.9076 3.30406 11.732 3.00003C11.5565 2.696 11.304 2.44353 11 2.268V2C11 1.46957 10.7893 0.960859 10.4142 0.585786C10.0391 0.210714 9.53043 0 9 0H1.5ZM1.5 1H9C9.26522 1 9.51957 1.10536 9.70711 1.29289C9.89464 1.48043 10 1.73478 10 2H1.5C1.36739 2 1.24021 1.94732 1.14645 1.85355C1.05268 1.75979 1 1.63261 1 1.5C1 1.36739 1.05268 1.24021 1.14645 1.14645C1.24021 1.05268 1.36739 1 1.5 1ZM1.5 3H10C10.2652 3 10.5196 3.10536 10.7071 3.29289C10.8946 3.48043 11 3.73478 11 4V10C11 10.2652 10.8946 10.5196 10.7071 10.7071C10.5196 10.8946 10.2652 11 10 11H2.5C2.10218 11 1.72064 10.842 1.43934 10.5607C1.15804 10.2794 1 9.89782 1 9.5V2.915C1.156 2.97 1.325 3 1.5 3Z" />
</svg>
