<svg width="218" height="202" viewBox="0 0 218 202" fill="none" xmlns="http://www.w3.org/2000/svg">
<ellipse cx="109.058" cy="101.121" rx="99.5503" ry="90.2549" transform="rotate(-6 109.058 101.121)" fill="white"/>
<path d="M202.082 91.1933C206.958 137.586 169.422 179.8 117.897 185.215C66.3716 190.631 20.8784 157.143 16.0023 110.751C11.1263 64.3588 48.663 22.1448 100.188 16.7293C151.713 11.3138 197.206 44.801 202.082 91.1933Z" fill="white" stroke="black" stroke-width="3"/>
<g style="mix-blend-mode:multiply">
<circle cx="109.668" cy="100.303" r="42.1289" transform="rotate(-6 109.668 100.303)" fill="#FFC312"/>
</g>
<g style="mix-blend-mode:multiply">
<path d="M185.827 96.6714C190.771 96.1517 195.158 98.947 195.146 102.942C195.095 120.438 188.215 137.616 175.542 151.477C161.13 167.241 140.406 177.424 117.929 179.786C95.4525 182.149 73.0643 176.497 55.6897 164.074C40.4114 153.151 30.1104 137.778 26.4227 120.676C25.5805 116.77 29.2905 113.124 34.2347 112.604L185.827 96.6714Z" fill="#00B2FF"/>
</g>
<path d="M45.0408 99.9905C46.0286 99.8867 47.2036 99.6633 48.5347 99.0241C51.2638 97.7346 54.5893 94.7904 58.1244 87.9123C59.5192 85.1985 60.1184 88.4511 61.5547 84.3724C61.6327 84.1645 61.6119 83.9669 61.6119 83.9669C61.5704 83.5718 61.3417 83.2962 61.0246 83.1298C61.0246 83.1298 60.8166 83.0518 60.5203 83.0829C60.2239 83.1141 59.938 83.244 59.7923 83.7587C58.3431 87.81 57.7549 84.4984 56.39 87.1331C53.1748 93.3394 50.2451 96.0353 47.8435 97.1991C47.074 97.4797 46.3929 97.6512 45.7014 97.7239C45.2075 97.7758 44.7032 97.7289 44.1989 97.6821C41.2304 96.9953 39.8792 93.6418 39.5158 90.1844C39.3082 88.2087 39.3969 86.202 39.7351 84.6683C40.932 77.052 45.8358 69.5455 48.6017 69.2547L48.8981 69.2236C49.3036 69.2809 49.5323 69.5564 49.5842 70.0503C49.7503 71.6309 48.1277 75.1971 47.8052 75.9301C47.7168 76.0393 47.7376 76.2368 47.748 76.3356C47.7895 76.7307 47.9194 77.0167 48.2366 77.1831C48.8708 77.516 49.583 77.6408 50.1757 77.5786C51.1635 77.4747 52.0007 76.8874 52.6975 75.9153C53.6491 74.5169 54.1329 72.4686 53.9357 70.5917C53.6346 67.727 51.8518 65.0181 47.8174 64.6431C47.1156 64.617 46.3149 64.6013 45.6234 64.674C38.4123 65.4319 33.966 73.4896 32.1713 80.17C31.3181 83.4556 30.9693 86.7881 31.2911 89.8504C31.9452 96.0736 35.5266 100.691 43.9542 100.105L45.0408 99.9905Z" fill="black"/>
<path d="M66.4998 82.3542C64.7217 82.5411 63.3749 83.981 62.4595 86.6739C61.544 89.3669 61.7014 91.1813 62.9317 92.1173C63.2956 92.412 63.8068 92.5247 64.4654 92.4555C66.2434 92.2686 67.6301 90.8911 68.6252 88.323C69.6065 85.6231 69.4785 83.7723 68.2413 82.7704C67.8047 82.4168 67.2242 82.2781 66.4998 82.3542ZM72.5341 93.2054C71.5322 94.4426 70.2427 95.477 68.6655 96.3086C67.1473 97.0674 65.4004 97.5506 63.4247 97.7583C60.3296 98.0836 58.1184 97.3173 56.7912 95.4593C55.3913 93.5424 55.0173 91.2513 55.6693 88.5861C56.2832 86.1912 57.5971 84.1222 59.6111 82.3791C61.6182 80.5702 64.2023 79.4996 67.3633 79.1674C69.6682 78.9251 71.5415 79.3275 72.9832 80.3744C74.4179 81.3555 75.1889 82.6727 75.2961 84.326C75.4691 85.9724 75.254 87.7261 74.6506 89.5873C75.2259 89.9929 75.8948 90.0224 76.6574 89.676C77.42 89.3295 77.855 88.7178 77.9626 87.8409L80.8273 87.5398C79.8769 92.4337 77.1124 94.3222 72.5341 93.2054Z" fill="black"/>
<path d="M85.9909 90.1931C86.5938 90.8621 87.6561 91.15 89.1777 91.0566C90.6993 90.9633 92.2088 90.4384 93.7062 89.482C95.2037 88.5257 96.0773 87.3352 96.3271 85.9108L99.093 85.62C98.4687 88.5487 97.0438 90.8291 94.8184 92.4612C92.586 94.0275 90.1198 94.9525 87.4198 95.2363C82.8758 95.7139 80.0617 94.2785 78.9773 90.9302C78.0073 88.036 78.5554 85.0155 80.6216 81.8687C82.5838 78.9992 85.1784 77.3948 88.4053 77.0557C89.6565 76.9241 90.7708 77.0734 91.7481 77.5033C92.7185 77.8674 93.3961 78.2955 93.7807 78.7878L94.2485 79.4377L91.4826 79.7284C89.8537 79.4335 88.4065 79.9186 87.1413 81.1834C85.876 82.4483 85.1652 83.9213 85.009 85.6022C84.8527 87.2832 85.18 88.8135 85.9909 90.1931Z" fill="black"/>
<path d="M104.73 78.436L107.336 66.1772L100.52 66.8936L95.6819 89.2744C95.3975 90.3696 95.3922 91.269 95.6659 91.9727C95.9326 92.6104 96.3797 93.0628 97.007 93.3298C97.6343 93.5968 98.2841 93.7615 98.9565 93.824C99.5631 93.8934 100.097 93.9039 100.558 93.8554L101.348 93.7724L103.939 82.3143C104.552 82.4495 105.188 83.1151 105.847 84.311C106.571 85.4999 107.2 86.7322 107.733 88.0077C108.326 89.2105 109.171 90.2868 110.27 91.2367C111.434 92.1796 112.741 92.575 114.19 92.4227C116.89 92.1389 118.997 91.2849 120.512 89.8606C122.027 88.4363 123.119 86.1576 123.789 83.0244L121.023 83.3151C120.714 84.8124 120.17 85.9682 119.39 86.7826C118.61 87.597 117.788 88.0162 116.925 88.0404C116.121 87.9917 115.424 87.6987 114.835 87.1614C114.107 86.5721 113.279 85.6604 112.351 84.4264C111.488 83.1854 110.653 82.2079 109.845 81.4938C109.038 80.7796 108.053 80.2838 106.892 80.0064C107.696 80.055 108.592 80.0274 109.58 79.9236C110.627 79.747 111.594 79.4456 112.481 79.0195C113.369 78.5933 114.22 78.1376 115.034 77.6525C115.908 77.0946 116.54 76.4622 116.932 75.7552C117.317 74.9823 117.504 74.2303 117.494 73.4989C117.543 72.6948 117.156 71.8699 116.335 71.024C115.58 70.1713 114.462 69.3566 112.982 68.58C113.703 70.3686 113.288 72.4429 111.739 74.803C110.182 77.0972 107.846 78.3082 104.73 78.436Z" fill="black"/>
<path d="M122.379 76.581L119.909 76.8405L120.565 73.5757L123.034 73.3161L124.975 64.2234L131.692 63.5174C131.061 66.3802 130.414 69.4111 129.752 72.6101L132.419 72.3298L131.763 75.5946L129.096 75.875C127.924 81.1916 127.209 84.5292 126.953 85.8878C126.727 86.9103 127.152 87.4649 128.226 87.5517C129.696 87.597 130.89 86.6059 131.809 84.5785C132.193 83.8056 132.44 82.9807 132.547 82.1039L135.313 81.8132C134.182 87.5249 131.016 90.6542 125.813 91.201C124.298 91.3602 122.933 91.0377 121.716 90.2334C120.427 89.3701 119.934 88.157 120.235 86.5938L122.379 76.581Z" fill="black"/>
<path d="M148.306 70.6599L155.023 69.9539C153.685 76.2202 152.751 80.6461 152.224 83.2317C151.999 84.2541 152.423 84.8087 153.498 84.8955C154.967 84.9408 156.194 83.9463 157.179 81.9119C157.498 81.146 157.744 80.3211 157.918 79.4373L160.684 79.1466C159.487 84.8653 156.287 87.998 151.085 88.5448C149.57 88.704 148.172 88.3849 146.889 87.5876C145.6 86.7243 145.139 85.5077 145.507 83.9377C143.496 87.6113 140.943 89.6108 137.848 89.9361C135.016 90.2337 133.336 88.8124 132.806 85.6721C132.262 82.4002 133.053 79.1544 135.178 75.9348C137.015 73.145 139.218 71.6151 141.787 71.3452C144.289 71.0822 146.178 71.9489 147.453 73.9456L148.306 70.6599ZM144.37 74.0698C142.658 74.2498 141.341 75.6533 140.418 78.2804C139.503 80.9733 139.598 82.8276 140.703 83.8433C141.14 84.1969 141.688 84.3391 142.346 84.2699C144.124 84.083 145.467 82.6102 146.376 79.8514C147.232 77.2313 147.075 75.4168 145.904 74.408C145.474 74.1203 144.963 74.0076 144.37 74.0698Z" fill="black"/>
<path d="M160.347 69.2945L157.47 82.7802C157.102 84.3502 157.56 85.5339 158.842 86.3313C160.124 87.1287 161.556 87.4443 163.136 87.2782C168.273 86.7383 171.44 83.609 172.636 77.8903L169.87 78.181C169.378 81.0959 168.201 82.8841 166.339 83.5458C165.182 83.9338 164.489 83.6738 164.26 82.7657C164.239 82.5681 164.248 82.3341 164.286 82.0638L167.075 68.6873L160.347 69.2945ZM162.199 66.0038C161.544 65.4734 161.171 64.7802 161.081 63.9241C160.991 63.068 161.211 62.3124 161.742 61.6574C162.272 61.0024 162.965 60.63 163.822 60.54C164.678 60.45 165.433 60.6702 166.088 61.2006C166.743 61.731 167.116 62.4243 167.206 63.2804C167.296 64.1365 167.075 64.892 166.545 65.547C166.015 66.202 165.321 66.5745 164.465 66.6645C163.609 66.7544 162.854 66.5342 162.199 66.0038Z" fill="black"/>
<path d="M174.146 59.1552L169.406 81.5256C169.039 83.0957 169.496 84.2794 170.778 85.0768C172.061 85.8741 173.492 86.1898 175.072 86.0236C180.209 85.4838 183.376 82.3545 184.572 76.6358L181.807 76.9265C181.314 79.8413 180.17 81.6261 178.374 82.2809C177.151 82.6758 176.458 82.4158 176.295 81.5007C176.208 81.3101 176.184 81.0796 176.222 80.8093L180.962 58.4388L174.146 59.1552Z" fill="black"/>
<path d="M72.4219 135.15L69.8032 147.425C69.4686 148.854 69.8848 149.931 71.0519 150.657C72.2191 151.383 73.5219 151.67 74.9605 151.519C79.6358 151.027 82.5181 148.179 83.6073 142.974L81.0898 143.238C80.6414 145.892 79.5701 147.519 77.876 148.121C76.8222 148.475 76.1913 148.238 75.9832 147.411C75.9643 147.232 75.9723 147.019 76.007 146.773L78.5453 134.597L72.4219 135.15Z" fill="white"/>
<path d="M82.9564 134.043L80.3377 146.317C79.8421 147.945 80.0281 149.138 80.8955 149.895C81.703 150.658 82.7266 150.884 83.9665 150.572C85.1464 150.266 86.0125 149.569 86.5647 148.481L94.067 135.966L92.0261 145.089C91.6914 146.518 92.1077 147.595 93.2748 148.321C94.4419 149.047 95.7448 149.334 97.1833 149.183C101.859 148.692 104.741 145.843 105.83 140.638L103.313 140.903C102.864 143.556 101.793 145.183 100.099 145.786C99.0451 146.139 98.4142 145.902 98.2061 145.076C98.1872 144.896 98.1951 144.683 98.2299 144.437L100.015 136.341C100.283 134.858 99.9603 133.801 99.0455 133.17C98.1907 132.533 97.1465 132.4 95.913 132.772C94.7331 133.078 93.8907 133.712 93.3858 134.674C92.4107 136.352 91.352 138.1 90.2097 139.916C89.0675 141.733 88.154 143.132 87.4692 144.113L86.5321 145.575L89.0798 133.49L82.9564 134.043Z" fill="white"/>
<path d="M117.656 130.487L123.77 129.844C122.552 135.548 121.702 139.576 121.222 141.929C121.017 142.86 121.404 143.365 122.382 143.444C123.719 143.485 124.836 142.58 125.732 140.728C126.023 140.031 126.247 139.28 126.405 138.476L128.922 138.211C127.833 143.416 124.921 146.268 120.185 146.765C118.807 146.91 117.534 146.62 116.367 145.894C115.193 145.108 114.774 144.001 115.109 142.572C113.278 145.916 110.955 147.735 108.137 148.032C105.56 148.302 104.03 147.009 103.548 144.151C103.053 141.172 103.773 138.218 105.707 135.288C107.38 132.749 109.385 131.356 111.722 131.11C114 130.871 115.719 131.66 116.88 133.477L117.656 130.487ZM114.074 133.59C112.515 133.754 111.316 135.032 110.477 137.423C109.643 139.874 109.73 141.562 110.736 142.486C111.134 142.808 111.632 142.937 112.231 142.874C113.85 142.704 115.072 141.364 115.899 138.853C116.679 136.468 116.536 134.816 115.47 133.898C115.078 133.636 114.613 133.534 114.074 133.59Z" fill="white"/>
<path d="M128.286 129.278L125.668 141.553C125.172 143.181 125.358 144.373 126.225 145.131C127.033 145.894 128.056 146.12 129.296 145.808C130.476 145.502 131.342 144.805 131.895 143.717L139.397 131.201L137.356 140.325C137.021 141.754 137.438 142.831 138.605 143.557C139.772 144.282 141.075 144.57 142.513 144.419C147.189 143.927 150.071 141.079 151.16 135.874L148.642 136.138C148.194 138.791 147.123 140.419 145.429 141.021C144.375 141.375 143.744 141.138 143.536 140.311C143.517 140.131 143.525 139.919 143.56 139.672L145.345 131.576C145.613 130.094 145.29 129.037 144.375 128.406C143.521 127.768 142.476 127.636 141.243 128.008C140.063 128.313 139.221 128.947 138.716 129.909C137.741 131.588 136.682 133.335 135.54 135.152C134.397 136.969 133.484 138.368 132.799 139.349L131.862 140.811L134.41 128.726L128.286 129.278Z" fill="white"/>
<path d="M155.343 138.343C155.892 138.952 156.859 139.214 158.244 139.129C159.629 139.044 161.003 138.566 162.366 137.696C163.729 136.825 164.524 135.742 164.751 134.445L167.269 134.181C166.701 136.846 165.404 138.922 163.378 140.407C161.346 141.833 159.102 142.675 156.644 142.933C152.508 143.368 149.947 142.062 148.96 139.014C148.077 136.38 148.576 133.63 150.456 130.766C152.242 128.154 154.604 126.694 157.541 126.385C158.68 126.266 159.694 126.402 160.584 126.793C161.467 127.124 162.084 127.514 162.434 127.962L162.86 128.554L160.342 128.818C158.859 128.55 157.542 128.991 156.391 130.143C155.239 131.294 154.592 132.634 154.45 134.164C154.308 135.695 154.605 137.087 155.343 138.343Z" fill="white"/>
<path d="M170.836 132.079C172.016 131.773 173.117 131.293 174.139 130.641C175.221 129.981 176 129.324 176.477 128.668C177.013 128.005 177.079 127.483 176.676 127.101C175.868 126.338 174.739 126.548 173.287 127.73C171.896 128.907 171.079 130.356 170.836 132.079ZM171.407 136.655C171.956 137.264 172.833 137.535 174.038 137.469C175.243 137.403 176.438 136.944 177.621 136.093C178.804 135.241 179.509 134.167 179.737 132.87L182.254 132.606C181.165 137.811 177.983 140.691 172.708 141.245C168.572 141.68 166.011 140.373 165.024 137.326C164.201 134.685 164.79 131.926 166.79 129.05C168.576 126.438 170.938 124.977 173.875 124.669C177.052 124.335 178.703 125.343 178.829 127.693C178.901 128.958 178.158 130.249 176.599 131.564C175.034 132.819 173.044 133.483 170.627 133.555C170.52 134.839 170.78 135.872 171.407 136.655Z" fill="white"/>
<path d="M64.5608 145.442C65.1291 142.636 66.0535 138.289 67.334 132.403L78.9694 131.18L80.0913 127.071L68.1999 128.32C68.9707 124.977 69.611 122.034 70.1207 119.491C79.2506 120.935 169.503 112.804 173.211 108.914C175.101 106.929 174.259 105.562 172.301 102.387L172.258 102.318C171.992 103.891 170.626 104.481 167.623 105.483C158.007 108.201 75.1232 114.931 71.128 115.522C67.2181 116.105 63.2318 116.781 59.169 117.552C55.1827 118.228 51.6814 119.412 48.6649 121.102C45.6485 122.793 43.8943 124.995 43.4025 127.708C43.0954 129.714 43.4402 131.352 44.4369 132.621C45.9229 134.439 47.8683 134.878 50.273 133.939C53.2666 132.852 54.7582 130.205 54.7478 126C53.9564 126.684 53.2957 126.968 52.7655 126.852C51.7906 126.611 51.6631 125.809 52.3831 124.446C53.8995 121.625 57.6035 119.905 63.4951 119.286C64.8612 119.143 66.1082 119.097 67.2361 119.151C62.8573 121.843 59.9824 126.523 58.6114 133.191L55.9739 145.057C55.9331 145.491 55.7553 145.853 55.4406 146.144C54.7435 146.904 54.0088 146.895 53.2365 146.118C52.352 145.095 52.654 143.861 54.1425 142.417C51.8371 142.659 50.1198 143.569 48.9908 145.147C47.9471 146.716 47.7324 148.37 48.3468 150.108C48.9522 151.761 50.2769 152.867 52.3211 153.425C54.3653 153.982 56.7382 153.561 59.4399 152.161C62.2269 150.753 63.9339 148.513 64.5608 145.442Z" fill="white"/>
<path d="M57.1673 52.0524C68.6782 40.0909 84.3455 31.9602 102.194 30.0842C120.043 28.2083 137.058 32.9039 150.804 42.2107" stroke="black" stroke-width="3"/>
<path d="M160.956 147.219C149.445 159.181 133.778 167.311 115.929 169.187C98.0804 171.063 81.0649 166.368 67.3187 157.061" stroke="white" stroke-width="3"/>
</svg>
