<?xml version="1.0" standalone="no"?>
<!DOCTYPE svg PUBLIC "-//W3C//DTD SVG 20010904//EN"
 "http://www.w3.org/TR/2001/REC-SVG-20010904/DTD/svg10.dtd">
<svg version="1.0" xmlns="http://www.w3.org/2000/svg"
 width="100.000000pt" height="100.000000pt" viewBox="0 0 100.000000 100.000000"
 preserveAspectRatio="xMidYMid meet">

<g transform="translate(0.000000,100.000000) scale(0.100000,-0.100000)"
fill="#000000" stroke="none">
<path d="M381 964 c-253 -68 -410 -331 -346 -579 67 -256 329 -415 580 -350
190 50 330 207 358 401 48 331 -270 615 -592 528z m159 -94 l0 -70 -40 0 -40
0 0 70 0 70 40 0 40 0 0 -70z m-120 -10 l0 -69 -42 -20 c-24 -11 -55 -27 -69
-37 -24 -16 -27 -15 -82 16 -31 17 -57 36 -57 40 0 23 134 110 200 131 49 15
50 13 50 -61z m275 32 c53 -26 135 -89 135 -102 0 -5 -25 -23 -56 -41 -55 -31
-57 -32 -83 -15 -14 9 -45 26 -68 37 l-43 20 0 70 0 71 33 -7 c17 -4 55 -19
82 -33z m-80 -160 c47 -24 95 -73 121 -122 26 -49 26 -171 0 -220 -26 -49 -74
-98 -121 -123 -31 -17 -58 -22 -115 -22 -85 0 -133 20 -186 77 -54 57 -69 95
-69 178 0 83 15 121 69 178 31 34 70 58 116 73 41 14 142 3 185 -19z m-413
-13 c29 -17 54 -32 56 -34 5 -4 -33 -65 -40 -65 -4 0 -31 15 -61 33 l-54 32
15 33 c9 17 19 32 23 32 5 0 32 -14 61 -31z m680 -2 l16 -34 -53 -31 c-29 -18
-57 -32 -62 -32 -8 0 -46 61 -41 65 9 7 114 65 119 65 3 0 12 -15 21 -33z
m-730 -108 l53 -30 0 -79 0 -79 -53 -30 c-30 -17 -58 -31 -62 -31 -11 0 -30
90 -30 140 0 50 19 140 30 140 4 0 32 -14 62 -31z m777 -19 c6 -28 11 -69 11
-90 0 -43 -19 -140 -27 -140 -3 0 -31 14 -62 31 l-56 31 0 78 0 78 55 31 c30
17 58 31 62 31 3 0 11 -23 17 -50z m-686 -241 c10 -18 16 -33 15 -34 -10 -9
-110 -65 -117 -65 -4 0 -14 15 -23 32 l-15 33 51 32 c28 17 56 32 61 32 6 1
18 -13 28 -30z m602 -1 l54 -32 -16 -30 c-9 -17 -17 -33 -19 -35 -2 -3 -109
53 -122 64 -5 5 33 65 41 65 5 0 33 -14 62 -32z m-525 -88 c16 -11 45 -27 64
-35 l36 -15 0 -71 0 -71 -32 7 c-66 15 -218 109 -218 135 0 8 99 68 113 69 5
1 22 -8 37 -19z m456 -11 c30 -17 54 -34 54 -39 0 -26 -152 -120 -217 -135
l-33 -7 0 71 0 70 43 19 c23 11 51 27 62 36 27 21 30 20 91 -15z m-236 -119
l0 -70 -40 0 -40 0 0 70 0 70 40 0 40 0 0 -70z"/>
</g>
</svg>
